<?xml version="1.0" encoding="UTF-8" standalone="no"?>
<svg
   height="16"
   viewBox="0 0 16 16"
   width="16"
   version="1.1"
   id="svg1"
   xmlns="http://www.w3.org/2000/svg"
   xmlns:svg="http://www.w3.org/2000/svg">
  <defs
     id="defs1" />
  <g
     id="g1"
     transform="translate(0,-2.6417111)">
    <path
       d="m 3.7636718,15.077474 3.6000003,3.3333372 c 0.3515625,0.3255261 0.9210934,0.3255261 1.2726557,0 L 12.236328,15.077474 c 0.351563,-0.3255209 0.351563,-0.8528642 0,-1.1783851 -0.351562,-0.3255208 -0.921092,-0.3255208 -1.272655,0 L 8.0000001,16.6432300 l -2.9636732,-2.7441411 c -0.3515625,-0.3255209 -0.9210933,-0.3255209 -1.2726558,0 -0.3515626,0.3255209 -0.3515626,0.8528642 0,1.1783851 z m 0,0"
       fill="#222222"
       fill-rule="evenodd"
       id="path1"
       style="stroke-width:0.866025" />
    <path
       d="m 12.236328,6.2059483 -3.6,-3.3333372 c -0.3515625,-0.3255261 -0.9210934,-0.3255261 -1.2726559,0 L 3.7636718,6.2059483 c -0.351563,0.3255209 -0.351563,0.8528642 0,1.1783851 0.351562,0.3255208 0.921092,0.3255208 1.272655,0 L 8.0000001,4.6401923 l 2.9636729,2.7441411 c 0.351563,0.3255208 0.921094,0.3255208 1.272656,0 0.351563,-0.3255209 0.351563,-0.8528642 0,-1.1783851 z m 0,0"
       fill="#222222"
       fill-rule="evenodd"
       id="path1-4"
       style="stroke-width:0.866025" />
  </g>
</svg>
